#!OML:ASF I:\Actors\actors\Patient Classification 2\Patient 1\Session 1\actor1.ASF
:FULLY-SPECIFIED
:DEGREES
822
root -1.09387 18.1014 6.3218 0.517002 -3.17229 -4.74436
lowerback 2.85875 0.649149 2.75024
upperback -1.21257 1.01415 1.40162
thorax -2.82788 0.468197 -0.153969
lowerneck -10.6529 -1.16721 -0.478968
upperneck 15.9665 -1.68646 0.993561
head 6.63043 -0.760549 0.248766
rclavicle 9.02296e-016 1.49089e-015
rhumerus -47.8728 -4.33745 -85.5239
rradius 44.4534
rwrist 10.2133
rhand -5.99991 -27.6588
rfingers 7.12502
rthumb 19.8324 303.333
lclavicle 9.02296e-016 1.49089e-015
lhumerus -42.3877 5.06613 88.1033
lradius 42.7846
lwrist -2.98928
lhand -8.25163 -26.99
lfingers 7.12502
lthumb 17.6667 2.22742
rfemur 0 0 0
rtibia 0
rfoot 0 0
rtoes 0
lfemur 19.8292 -9.17482 -12.7476
ltibia -18.4677
lfoot -6.26868 23.1517
ltoes -8.60532
823
root -1.09198 18.1029 6.31775 0.571197 -3.19749 -4.76272
lowerback 2.82383 0.636405 2.76211
upperback -1.25041 0.997039 1.39173
thorax -2.84724 0.458886 -0.169656
lowerneck -10.5936 -1.15593 -0.541251
upperneck 16.0177 -1.67427 1.07027
head 6.63759 -0.752063 0.284913
rclavicle 2.4289e-015 1.98785e-015
rhumerus -47.7815 -4.34657 -85.4374
rradius 44.4956
rwrist 10.3199
rhand -6.12141 -27.6799
rfingers 7.12502
rthumb 19.7156 303.3
lclavicle 2.4289e-015 1.98785e-015
lhumerus -42.2749 4.95918 88.1421
lradius 42.7831
lwrist -3.03008
lhand -8.44365 -27.1591
lfingers 7.12502
lthumb 17.4819 2.07486
rfemur 0 0 0
rtibia 0
rfoot 0 0
rtoes 0
lfemur 19.7666 -9.19061 -12.729
ltibia -18.4815
lfoot -6.2237 23.1964
ltoes -8.47188
824
root -1.08942 18.1042 6.31305 0.62978 -3.22043 -4.74482
lowerback 2.77761 0.611216 2.73134
upperback -1.28913 0.961167 1.38073
thorax -2.86219 0.441061 -0.161553
lowerneck -10.5792 -1.13109 -0.599001
upperneck 16.1415 -1.64742 1.1591
head 6.67574 -0.734766 0.325114
rclavicle 1.21119e-014 2.55438e-014
rhumerus -47.671 -4.25322 -85.374
rradius 44.5324
rwrist 10.3854
rhand -6.17197 -27.7557
rfingers 7.12502
rthumb 19.667 303.219
lclavicle 1.21119e-014 2.55438e-014
lhumerus -42.2223 4.77735 88.2178
lradius 42.8495
lwrist -2.9134
lhand -8.53823 -27.153
lfingers 7.12502
lthumb 17.3909 2.08903
rfemur 0 0 0
rtibia 0
rfoot 0 0
rtoes 0
lfemur 19.7009 -9.19213 -12.751
ltibia -18.5064
lfoot -6.20755 23.2318
ltoes -8.43816
825
root -1.08782 18.1059 6.30731 0.690053 -3.22996 -4.72569
lowerback 2.71197 0.581183 2.66491
upperback -1.30861 0.916636 1.38758
thorax -2.84734 0.420231 -0.114425
lowerneck -10.6305 -1.09949 -0.655876
upperneck 16.2794 -1.60766 1.22588
head 6.72959 -0.712696 0.358953
rclavicle 1.06831e-014 1.8487e-014
rhumerus -47.5185 -4.11861 -85.2721
rradius 44.512
rwrist 10.4134
rhand -6.22858 -28.0193
rfingers 7.12502
rthumb 19.6126 302.95
lclavicle 1.06831e-014 1.8487e-014
lhumerus -42.1549 4.69043 88.2753
lradius 42.9116
lwrist -2.90601
lhand -8.50581 -27.0634
lfingers 7.12502
lthumb 17.4221 2.17588
rfemur 0 0 0
rtibia 0
rfoot 0 0
rtoes 0
lfemur 19.6185 -9.19743 -12.7686
ltibia -18.5155
lfoot -6.19099 23.2551
ltoes -8.5751
826
root -1.08632 18.1078 6.30049 0.727394 -3.23001 -4.71742
lowerback 2.65804 0.554821 2.61409
upperback -1.30455 0.877601 1.39902
thorax -2.81444 0.402217 -0.0716759
lowerneck -10.6795 -1.08253 -0.641465
upperneck 16.3581 -1.57725 1.1654
head 6.76249 -0.701819 0.339494
rclavicle -3.10756e-015 -1.50082e-014
rhumerus -47.3596 -4.02618 -85.138
rradius 44.4765
rwrist 10.4146
rhand -6.20226 -28.1038
rfingers 7.12502
rthumb 19.6379 302.868
lclavicle -3.10756e-015 -1.50082e-014
lhumerus -42.023 4.69092 88.3069
lradius 42.8677
lwrist -3.0425
lhand -8.44692 -27.095
lfingers 7.12502
lthumb 17.4788 2.13917
rfemur 0 0 0
rtibia 0
rfoot 0 0
rtoes 0
lfemur 19.5548 -9.22462 -12.778
ltibia -18.5124
lfoot -6.18058 23.2905
ltoes -8.50502
827
root -1.0831 18.1082 6.29257 0.743714 -3.20856 -4.69196
lowerback 2.64529 0.522031 2.58904
upperback -1.30723 0.832154 1.38658
thorax -2.81105 0.379931 -0.0680696
lowerneck -10.707 -1.07107 -0.552456
upperneck 16.4429 -1.55802 1.04973
head 6.79271 -0.696563 0.289067
rclavicle 6.34713e-015 -7.05686e-015
rhumerus -47.2746 -3.89192 -85.1116
rradius 44.594
rwrist 10.3102
rhand -6.03335 -27.8701
rfingers 7.12502
rthumb 19.8003 303.118
lclavicle 6.34713e-015 -7.05686e-015
lhumerus -41.8964 4.61211 88.3647
lradius 42.775
lwrist -3.03543
lhand -8.41569 -27.1455
lfingers 7.12502
lthumb 17.5088 2.08601
rfemur 0 0 0
rtibia 0
rfoot 0 0
rtoes 0
lfemur 19.5023 -9.23619 -12.8074
ltibia -18.513
lfoot -6.15773 23.2862
ltoes -8.34605
828
root -1.08047 18.1079 6.28339 0.739432 -3.1848 -4.68938
lowerback 2.69405 0.491622 2.59158
upperback -1.31877 0.793466 1.37157
thorax -2.85094 0.359972 -0.0835113
lowerneck -10.7345 -1.0547 -0.495326
upperneck 16.5345 -1.53946 1.00731
head 6.82605 -0.687313 0.26735
rclavicle -8.48717e-015 -7.7526e-015
rhumerus -47.2345 -3.7659 -85.12
rradius 44.7148
rwrist 10.2129
rhand -6.08914 -27.7615
rfingers 7.12502
rthumb 19.7467 303.222
lclavicle -8.48717e-015 -7.7526e-015
lhumerus -41.817 4.47523 88.4472
lradius 42.7166
lwrist -2.93935
lhand -8.43046 -27.1696
lfingers 7.12502
lthumb 17.4946 2.06317
rfemur 0 0 0
rtibia 0
rfoot 0 0
rtoes 0
lfemur 19.4545 -9.25482 -12.8082
ltibia -18.4987
lfoot -6.14778 23.2729
ltoes -8.31123
829
root -1.07862 18.108 6.27366 0.702716 -3.21441 -4.69754
lowerback 2.7807 0.479826 2.58848
upperback -1.3191 0.7807 1.3635
thorax -2.9003 0.353075 -0.0902449
lowerneck -10.7979 -1.03081 -0.542045
upperneck 16.6635 -1.51432 1.088
head 6.87949 -0.670471 0.302776
rclavicle 1.71933e-014 1.5207e-014
rhumerus -47.1807 -3.69358 -85.0732
rradius 44.7299
rwrist 10.2192
rhand -6.17222 -27.954
rfingers 7.12502
rthumb 19.6668 303.021
lclavicle 1.71933e-014 1.5207e-014
lhumerus -41.7569 4.43878 88.4891
lradius 42.6504
lwrist -3.02117
lhand -8.41917 -27.1913
lfingers 7.12502
lthumb 17.5055 2.04052
rfemur 0 0 0
rtibia 0
rfoot 0 0
rtoes 0
lfemur 19.4468 -9.23797 -12.8032
ltibia -18.4696
lfoot -6.15615 23.2651
ltoes -8.36654
830
root -1.0763 18.1088 6.26331 0.689678 -3.24656 -4.66297
lowerback 2.84176 0.471622 2.54672
upperback -1.32502 0.769865 1.33878
thorax -2.94117 0.347781 -0.0923185
lowerneck -10.8773 -1.00253 -0.619783
upperneck 16.8097 -1.48548 1.21115
head 6.9419 -0.649932 0.357377
rclavicle 4.5239e-015 6.4605e-015
rhumerus -47.1042 -3.6757 -85.0029
rradius 44.6736
rwrist 10.2992
rhand -6.15856 -28.2032
rfingers 7.12502
rthumb 19.6799 302.773
lclavicle 4.5239e-015 6.4605e-015
lhumerus -41.7245 4.43159 88.5051
lradius 42.5783
lwrist -3.21431
lhand -8.4565 -27.1418
lfingers 7.12502
lthumb 17.4696 2.09322
rfemur 0 0 0
rtibia 0
rfoot 0 0
rtoes 0
lfemur 19.4094 -9.18887 -12.8379
ltibia -18.4513
lfoot -6.14183 23.2409
ltoes -8.24751
831
root -1.07424 18.1108 6.25312 0.716151 -3.25568 -4.65765
lowerback 2.8574 0.473227 2.55533
upperback -1.33289 0.772352 1.3099
thorax -2.95754 0.348348 -0.127128
lowerneck -10.8937 -0.997611 -0.67246
upperneck 16.8625 -1.48681 1.3046
head 6.96298 -0.645487 0.395995
rclavicle -2.54693e-015 -9.93923e-016
rhumerus -47.0202 -3.73788 -84.9106
rradius 44.5666
rwrist 10.374
rhand -6.25798 -28.1805
rfingers 7.12502
rthumb 19.5843 302.786
lclavicle -2.54693e-015 -9.93923e-016
lhumerus -41.6942 4.39559 88.5345
lradius 42.5082
lwrist -3.42052
lhand -8.55527 -27.2187
lfingers 7.12502
lthumb 17.3745 2.02474
rfemur 0 0 0
rtibia 0
rfoot 0 0
rtoes 0
lfemur 19.3294 -9.14573 -12.8316
ltibia -18.4433
lfoot -6.05174 23.2223
ltoes -8.25639
832
root -1.0723 18.1124 6.24399 0.706985 -3.2995 -4.6997
lowerback 2.88141 0.49331 2.60433
upperback -1.32251 0.801398 1.29659
thorax -2.95897 0.361778 -0.169959
lowerneck -10.8531 -1.00575 -0.656224
upperneck 16.8466 -1.50468 1.32555
head 6.95091 -0.651477 0.398634
rclavicle -3.29548e-015 5.76476e-015
rhumerus -46.963 -3.87796 -84.7477
rradius 44.3994
rwrist 10.527
rhand -6.49616 -28.0188
rfingers 7.12502
rthumb 19.3553 302.924
lclavicle -3.29548e-015 5.76476e-015
lhumerus -41.6574 4.38596 88.5672
lradius 42.4442
lwrist -3.61852
lhand -8.58558 -27.4597
lfingers 7.12502
lthumb 17.3453 1.78629
rfemur 0 0 0
rtibia 0
rfoot 0 0
rtoes 0
lfemur 19.3092 -9.05775 -12.7819
ltibia -18.4378
lfoot -5.9352 23.2087
ltoes -8.78401
